<svg width="65" height="66" viewBox="0 0 65 66" fill="none" xmlns="http://www.w3.org/2000/svg">
<path d="M34.8168 64.257C39.2899 64.257 43.5472 63.323 47.4092 61.6423C42.9647 63.919 37.93 65.2044 32.6031 65.2044C14.6265 65.2044 0 50.5797 0 32.6012C0 14.6227 14.6265 0 32.6031 0C37.9319 0 42.9647 1.28541 47.4092 3.56209C43.5472 1.88132 39.2899 0.947344 34.8168 0.947344C17.3635 0.947344 3.1629 15.148 3.1629 32.6012C3.1629 50.0545 17.3654 64.2551 34.8168 64.2551V64.257Z" fill="url(#paint0_linear_28_46)"/>
<path d="M65 32.6032C65 49.2447 51.4602 62.7825 34.8187 62.7825C29.8547 62.7825 25.1657 61.5774 21.0325 59.4458C24.5832 60.9834 28.4967 61.8352 32.605 61.8352C48.7232 61.8352 61.8371 48.7233 61.8371 32.6032C61.8371 16.483 48.7213 3.37111 32.6031 3.37111C28.4948 3.37111 24.5813 4.22296 21.0306 5.76048C25.1638 3.62896 29.8547 2.42377 34.8168 2.42377C51.4583 2.42377 64.9981 15.9616 64.9981 32.6032H65Z" fill="url(#paint1_linear_28_46)"/>
<mask id="mask0_28_46" style="mask-type:luminance" maskUnits="userSpaceOnUse" x="17" y="23" width="15" height="8">
<path d="M27.3487 23.5881C27.3487 23.5881 20.6352 23.9071 17.8619 30.0056L27.7708 30.1088C29.2606 26.1188 31.3043 23.9186 31.4342 23.7791C31.5106 23.697 31.5889 23.6187 31.6653 23.5366L27.3468 23.5862L27.3487 23.5881Z" fill="white"/>
</mask>
<g mask="url(#mask0_28_46)">
<path d="M31.6524 23.0719L17.6431 23.544L17.8799 30.5725L31.8892 30.1004L31.6524 23.0719Z" fill="url(#paint2_linear_28_46)"/>
</g>
<mask id="mask1_28_46" style="mask-type:luminance" maskUnits="userSpaceOnUse" x="12" y="17" width="28" height="14">
<path d="M20.2169 18.8132C12.8349 22.1957 12.875 29.9521 12.875 29.9521L17.8638 30.0037C20.6371 23.9052 27.3506 23.5862 27.3506 23.5862L31.6691 23.5365C34.3851 20.6716 37.122 18.8476 39.5859 17.6939L26.239 17.5602C26.1875 17.5602 26.1359 17.5602 26.0862 17.5602C24.0655 17.5602 22.0581 17.9709 20.2188 18.8132" fill="white"/>
</mask>
<g mask="url(#mask1_28_46)">
<path d="M25.4059 4.20507L6.62244 24.1515L27.011 43.3513L45.7944 23.4049L25.4059 4.20507Z" fill="url(#paint3_linear_28_46)"/>
</g>
<mask id="mask2_28_46" style="mask-type:luminance" maskUnits="userSpaceOnUse" x="28" y="17" width="25" height="21">
<path d="M33.1608 24.5832C33.1608 24.5832 28.7468 29.2435 28.4546 37.5557C30.2748 32.3758 33.4931 29.2855 33.4931 29.2855C40.2525 21.7335 49.3133 19.7834 52.1229 19.346V19.2066C52.1229 19.2066 52.0713 17.1744 49.1567 17.1744C49.1567 17.1744 49.0116 17.1649 48.7461 17.1649C46.8915 17.1649 39.1504 17.6041 33.1608 24.5851" fill="white"/>
</mask>
<g mask="url(#mask2_28_46)">
<path d="M45.0998 6.35232L19.1387 23.2181L35.4801 48.3721L61.4412 31.5063L45.0998 6.35232Z" fill="url(#paint4_linear_28_46)"/>
</g>
<mask id="mask3_28_46" style="mask-type:luminance" maskUnits="userSpaceOnUse" x="28" y="28" width="14" height="29">
<path d="M28.3859 40.1532V55.0319C28.3859 55.6411 28.871 56.1301 29.4765 56.1511L31.2623 56.1473C31.2623 56.1473 31.4857 56.174 31.8276 56.1435C31.8295 56.1435 31.8314 56.1435 31.8334 56.1435C31.8696 56.1397 31.9078 56.1358 31.946 56.1301C31.9594 56.1301 31.9728 56.1282 31.9862 56.1244C32.0167 56.1206 32.0473 56.1167 32.0778 56.111C32.0931 56.1091 32.1065 56.1072 32.1198 56.1053C32.1638 56.0976 32.2058 56.09 32.2516 56.0804H32.2612C32.3051 56.069 32.3529 56.0575 32.3987 56.048C32.414 56.0442 32.4293 56.0403 32.4445 56.0346C32.4808 56.0251 32.5152 56.0155 32.5515 56.004C32.5668 56.0002 32.5821 55.9945 32.5973 55.9888C32.647 55.9735 32.6947 55.9582 32.7463 55.9391C32.7501 55.9372 32.752 55.9372 32.7559 55.9353C32.8055 55.9181 32.8552 55.8971 32.9068 55.8761L32.9545 55.8551C32.9927 55.8379 33.0309 55.8207 33.0672 55.8016C33.0844 55.7939 33.0997 55.7863 33.1169 55.7768C33.1684 55.7519 33.22 55.7233 33.2716 55.6927C33.2735 55.6927 33.2773 55.6908 33.2792 55.6889C33.3308 55.6583 33.3823 55.6259 33.432 55.5934L33.4797 55.5609C33.5179 55.5342 33.5561 55.5075 33.5943 55.4788C33.6096 55.4673 33.6268 55.454 33.6421 55.4425C33.6937 55.4024 33.7452 55.3604 33.7949 55.3165C33.7949 55.3165 33.7968 55.3165 33.7987 55.3145C33.8484 55.2706 33.898 55.221 33.9477 55.1732C33.963 55.1579 33.9782 55.1426 33.9916 55.1255C34.0279 55.0892 34.0623 55.0491 34.0986 55.009C34.1139 54.9918 34.1272 54.9765 34.1425 54.9593C34.1903 54.902 34.2361 54.8447 34.2819 54.7836C34.2819 54.7836 34.2838 54.7836 34.2838 54.7817C34.3297 54.7205 34.3736 54.6556 34.4156 54.5868C34.429 54.5658 34.4424 54.5448 34.4538 54.5257C34.4863 54.4742 34.5169 54.4207 34.5474 54.3653C34.5589 54.3424 34.5722 54.3214 34.5837 54.2984C34.6238 54.222 34.6639 54.1437 34.7002 54.0616C34.7384 53.9795 34.7728 53.8935 34.8053 53.8057C34.8148 53.7789 34.8263 53.7522 34.8339 53.7255C34.8587 53.6586 34.8817 53.5898 34.9046 53.5192C34.9141 53.4905 34.9237 53.4619 34.9313 53.4332C34.9905 53.2384 35.0402 53.0283 35.0822 52.8048C35.0879 52.7705 35.0937 52.738 35.0994 52.7036C35.1147 52.6177 35.128 52.5317 35.1395 52.442C35.1433 52.4057 35.1491 52.3713 35.1548 52.335C35.1701 52.2128 35.1815 52.0886 35.193 51.9568V34.4921C35.193 34.4921 35.2102 34.0413 35.4642 33.39C35.8271 32.4656 36.6751 31.1325 38.6443 30.0992C39.372 29.7172 40.2487 29.3753 41.3144 29.1098V28.9474C30.8726 30.6359 28.3859 40.1551 28.3859 40.1551" fill="white"/>
</mask>
<g mask="url(#mask3_28_46)">
<path d="M41.3125 28.9474H28.384V56.1759H41.3125V28.9474Z" fill="url(#paint5_linear_28_46)"/>
</g>
<mask id="mask4_28_46" style="mask-type:luminance" maskUnits="userSpaceOnUse" x="31" y="29" width="11" height="28">
<path d="M38.6424 30.0992C36.6732 31.1325 35.8252 32.4656 35.4623 33.3901C35.2063 34.0433 35.191 34.4921 35.191 34.4921V51.9568C35.1815 52.0886 35.1681 52.2128 35.1528 52.335C35.149 52.3713 35.1433 52.4057 35.1376 52.442C35.1261 52.5317 35.1127 52.6177 35.0975 52.7036C35.0917 52.7361 35.0879 52.7705 35.0803 52.8049C35.0382 53.0283 34.9886 53.2384 34.9294 53.4333C34.9217 53.4619 34.9122 53.4905 34.9026 53.5192C34.8797 53.5899 34.8568 53.6586 34.832 53.7255C34.8224 53.7522 34.8129 53.779 34.8033 53.8057C34.7709 53.8936 34.7346 53.9795 34.6983 54.0616C34.662 54.1438 34.6219 54.2221 34.5818 54.2985C34.5684 54.3214 34.5569 54.3424 34.5455 54.3653C34.5149 54.4188 34.4844 54.4742 34.4519 54.5258C34.4385 54.5449 34.4271 54.5678 34.4137 54.5869C34.3717 54.6537 34.3277 54.7187 34.2819 54.7817L34.28 54.7836C34.2341 54.8447 34.1883 54.9039 34.1406 54.9593C34.1253 54.9765 34.1119 54.9937 34.0966 55.009C34.0603 55.0491 34.026 55.0892 33.9897 55.1255C33.9744 55.1427 33.961 55.156 33.9457 55.1732C33.8961 55.221 33.8483 55.2687 33.7968 55.3146C33.7968 55.3146 33.7949 55.3165 33.7929 55.3165C33.7414 55.3623 33.6898 55.4024 33.6402 55.4425C33.6249 55.454 33.6077 55.4674 33.5924 55.4788C33.5542 55.5075 33.516 55.5342 33.4778 55.561L33.4301 55.5934C33.3804 55.6259 33.3288 55.6584 33.2773 55.6889C33.2734 55.6889 33.2715 55.6908 33.2696 55.6927C33.218 55.7233 33.1665 55.75 33.1149 55.7768C33.0977 55.7844 33.0824 55.7921 33.0653 55.8016C33.0271 55.8207 32.9889 55.8379 32.9526 55.8551L32.9048 55.8761C32.8552 55.8971 32.8055 55.9181 32.7539 55.9353C32.7501 55.9353 32.7482 55.9372 32.7444 55.9391C32.6947 55.9582 32.647 55.9735 32.5954 55.9888C32.5801 55.9945 32.5648 55.9983 32.5496 56.0041C32.5133 56.0136 32.4789 56.0251 32.4426 56.0346C32.4273 56.0384 32.412 56.0423 32.3968 56.048C32.3509 56.0595 32.3051 56.0709 32.2592 56.0786H32.2497C32.2039 56.09 32.1618 56.0977 32.1179 56.1053C32.1026 56.1072 32.0893 56.1091 32.0759 56.111C32.0453 56.1148 32.0148 56.1206 31.9842 56.1244C31.9708 56.1263 31.9575 56.1282 31.9441 56.1301C31.9059 56.1359 31.8696 56.1397 31.8314 56.1435C31.8314 56.1435 31.8276 56.1435 31.8257 56.1435C40.7032 56.3383 41.3125 47.8848 41.3125 47.8848V29.1079C40.2467 29.3715 39.3701 29.7153 38.6424 30.0973" fill="white"/>
</mask>
<g mask="url(#mask4_28_46)">
<path d="M41.31 29.0839L31.7354 29.114L31.821 56.3729L41.3956 56.3428L41.31 29.0839Z" fill="url(#paint6_linear_28_46)"/>
</g>
<mask id="mask5_28_46" style="mask-type:luminance" maskUnits="userSpaceOnUse" x="28" y="19" width="25" height="22">
<path d="M33.4931 29.2855C33.4931 29.2855 30.8249 31.8487 28.9741 36.2168C28.7946 36.6408 28.6227 37.0801 28.4623 37.5366C28.4604 37.548 28.4565 37.5595 28.4546 37.569C28.4393 37.9873 28.4069 38.4132 28.3859 38.8468V40.1532C28.3859 40.1532 30.8726 30.634 41.3144 28.9455C41.3545 28.9398 41.3908 28.9322 41.4309 28.9264H47.6784C47.6784 28.9264 51.613 29.0067 52.1248 25.6948V19.3422C49.3134 19.7815 40.2525 21.7316 33.495 29.2817" fill="white"/>
</mask>
<g mask="url(#mask5_28_46)">
<path d="M44.4963 8.2647L18.6675 26.0363L36.0125 51.2451L61.8413 33.4735L44.4963 8.2647Z" fill="url(#paint7_linear_28_46)"/>
</g>
<mask id="mask6_28_46" style="mask-type:luminance" maskUnits="userSpaceOnUse" x="28" y="28" width="20" height="12">
<path d="M33.241 32.2861C33.241 32.2861 29.1021 35.9284 28.4508 39.9145C28.4508 39.9145 31.4017 30.9071 41.1769 29.3734C41.1769 29.3734 44.2462 28.8749 47.39 28.9303L46.1944 28.7221C46.1944 28.7221 45.5202 28.6438 44.4411 28.6438C41.811 28.6438 36.7764 29.106 33.2429 32.288" fill="white"/>
</mask>
<g mask="url(#mask6_28_46)">
<path d="M40.3931 19.5021L23.0103 32.8068L35.4466 49.0551L52.8294 35.7505L40.3931 19.5021Z" fill="url(#paint8_linear_28_46)"/>
</g>
<defs>
<linearGradient id="paint0_linear_28_46" x1="23.7046" y1="-7.37438" x2="23.7046" y2="35.5598" gradientUnits="userSpaceOnUse">
<stop stop-color="#5CEBFF"/>
<stop offset="1" stop-color="#0062FE"/>
</linearGradient>
<linearGradient id="paint1_linear_28_46" x1="43.0144" y1="73.444" x2="43.0144" y2="27.578" gradientUnits="userSpaceOnUse">
<stop stop-color="#F36656"/>
<stop offset="1" stop-color="#F8A450"/>
</linearGradient>
<linearGradient id="paint2_linear_28_46" x1="42.598" y1="26.2074" x2="27.3096" y2="26.7226" gradientUnits="userSpaceOnUse">
<stop stop-color="#5CEBFF"/>
<stop offset="1" stop-color="#0062FE"/>
</linearGradient>
<linearGradient id="paint3_linear_28_46" x1="39.0662" y1="9.93858" x2="16.7761" y2="33.6088" gradientUnits="userSpaceOnUse">
<stop stop-color="#5CEBFF"/>
<stop offset="1" stop-color="#0062FE"/>
</linearGradient>
<linearGradient id="paint4_linear_28_46" x1="32.7362" y1="32.2872" x2="47.7065" y2="22.5617" gradientUnits="userSpaceOnUse">
<stop stop-color="#BF259D"/>
<stop offset="1" stop-color="#FF9C70"/>
</linearGradient>
<linearGradient id="paint5_linear_28_46" x1="29.9322" y1="42.5185" x2="39.8966" y2="42.5185" gradientUnits="userSpaceOnUse">
<stop stop-color="#AA18A5"/>
<stop offset="1" stop-color="#FF7F74"/>
</linearGradient>
<linearGradient id="paint6_linear_28_46" x1="36.9499" y1="36.705" x2="37.0077" y2="55.081" gradientUnits="userSpaceOnUse">
<stop stop-color="#AA18A5"/>
<stop offset="1" stop-color="#FF7F74"/>
</linearGradient>
<linearGradient id="paint7_linear_28_46" x1="28.1407" y1="38.5234" x2="47.4892" y2="25.2106" gradientUnits="userSpaceOnUse">
<stop stop-color="#B20365"/>
<stop offset="1" stop-color="#FDCE85"/>
</linearGradient>
<linearGradient id="paint8_linear_28_46" x1="31.0556" y1="39.1611" x2="44.4255" y2="28.928" gradientUnits="userSpaceOnUse">
<stop stop-color="#EF498C"/>
<stop offset="0.48" stop-color="#FEB96A"/>
<stop offset="0.97" stop-color="#FEB96A"/>
<stop offset="1" stop-color="#FEB96A"/>
</linearGradient>
</defs>
</svg>
